<svg xmlns="http://www.w3.org/2000/svg" version="1.1" xmlns:xlink="http://www.w3.org/1999/xlink" xmlns:svgjs="http://svgjs.dev/svgjs" width="2000" height="484" viewBox="0 0 2000 484"><g transform="matrix(1,0,0,1,-1.2121212121212466,-0.10688985516929961)"><svg viewBox="0 0 396 96" data-background-color="#ffffff" preserveAspectRatio="xMidYMid meet" height="484" width="2000" xmlns="http://www.w3.org/2000/svg" xmlns:xlink="http://www.w3.org/1999/xlink"><g id="tight-bounds" transform="matrix(1,0,0,1,0.2400000000000091,0.021201293587296277)"><svg viewBox="0 0 395.52 95.95759741282541" height="95.95759741282541" width="395.52"><g><svg viewBox="0 0 552.4443437428062 134.0292069424169" height="95.95759741282541" width="395.52"><g transform="matrix(1,0,0,1,0,18.52357346309814)"><svg viewBox="0 0 395.52 96.98206001622061" height="96.98206001622061" width="395.52"><g id="textblocktransform"><svg viewBox="0 0 395.52 96.98206001622061" height="96.98206001622061" width="395.52" id="textblock"><g><svg viewBox="0 0 395.52 96.98206001622061" height="96.98206001622061" width="395.52"><g transform="matrix(1,0,0,1,0,0)"><svg width="395.52" viewBox="3.15 -34.8 184.93 45.35" height="96.98206001622061" data-palette-color="#111111"><path d="M10.05 0L3.15 0 3.15-34.15 14.25-34.15 21.15-11.35 27.9-34.15 39.15-34.15 39.15 0 32.25 0 32.25-25.3 31.55-25.3 24.4-0.9 17.9-0.9 10.75-25.3 10.05-25.3 10.05 0ZM58.3 10.55L51.2 10.55 54.4 0 49.05 0 43.1-25.1 50.05-25.1 54.5-5.65 55.8-5.65 60.25-25.1 66.95-25.1 58.3 10.55ZM92.79 0.55L92.79 0.55Q90.89 0.55 88.64 0.33 86.39 0.1 84.27-0.23 82.14-0.55 80.64-0.8L80.64-0.8 81.09-6.25Q82.64-6.05 84.69-5.83 86.74-5.6 88.77-5.45 90.79-5.3 92.29-5.3L92.29-5.3Q94.19-5.3 95.39-5.8 96.59-6.3 97.17-7.33 97.74-8.35 97.74-9.95L97.74-9.95Q97.74-11.25 97.22-12.03 96.69-12.8 95.34-13.28 93.99-13.75 91.59-14.2L91.59-14.2Q88.59-14.75 86.47-15.5 84.34-16.25 82.99-17.38 81.64-18.5 81.02-20.25 80.39-22 80.39-24.5L80.39-24.5Q80.39-28.4 81.84-30.63 83.29-32.85 85.99-33.8 88.69-34.75 92.34-34.75L92.34-34.75Q93.99-34.75 96.12-34.58 98.24-34.4 100.32-34.15 102.39-33.9 103.84-33.6L103.84-33.6 103.54-28.1Q102.04-28.3 100.07-28.48 98.09-28.65 96.17-28.8 94.24-28.95 92.89-28.95L92.89-28.95Q91.04-28.95 89.79-28.55 88.54-28.15 87.94-27.3 87.34-26.45 87.34-25.15L87.34-25.15Q87.34-23.65 87.94-22.85 88.54-22.05 89.97-21.55 91.39-21.05 93.89-20.5L93.89-20.5Q96.84-19.85 98.92-19.1 100.99-18.35 102.27-17.3 103.54-16.25 104.14-14.6 104.74-12.95 104.74-10.45L104.74-10.45Q104.74-6.45 103.32-4.03 101.89-1.6 99.22-0.53 96.54 0.55 92.79 0.55ZM115.79 10.55L109.14 10.55 109.14-25.1 115.74-25.1 115.79-23.5Q116.49-23.95 117.57-24.45 118.64-24.95 119.89-25.3 121.14-25.65 122.34-25.65L122.34-25.65Q125.69-25.65 127.77-24.23 129.84-22.8 130.82-19.93 131.79-17.05 131.79-12.65L131.79-12.65Q131.79-7.95 130.69-5.05 129.59-2.15 127.17-0.8 124.74 0.55 120.79 0.55L120.79 0.55Q119.54 0.55 118.09 0.35 116.64 0.15 115.79-0.05L115.79-0.05 115.79 10.55ZM119.74-5L119.74-5Q121.74-5 122.89-5.85 124.04-6.7 124.52-8.43 124.99-10.15 124.99-12.8L124.99-12.8Q124.99-16.9 123.87-18.48 122.74-20.05 120.64-20.05L120.64-20.05Q119.84-20.05 118.94-19.85 118.04-19.65 117.19-19.35 116.34-19.05 115.79-18.75L115.79-18.75 115.79-5.35Q116.39-5.3 117.52-5.15 118.64-5 119.74-5ZM147.14 0.55L147.14 0.55Q142.89 0.55 140.31-0.85 137.74-2.25 136.59-5.18 135.44-8.1 135.44-12.75L135.44-12.75Q135.44-17.25 136.64-20.08 137.84-22.9 140.44-24.28 143.04-25.65 147.14-25.65L147.14-25.65Q151.29-25.65 153.86-24.28 156.44-22.9 157.66-20.08 158.89-17.25 158.89-12.75L158.89-12.75Q158.89-8.1 157.74-5.18 156.59-2.25 154.01-0.85 151.44 0.55 147.14 0.55ZM147.14-4.95L147.14-4.95Q149.24-4.95 150.29-5.73 151.34-6.5 151.71-8.22 152.09-9.95 152.09-12.75L152.09-12.75Q152.09-15.5 151.64-17.13 151.19-18.75 150.14-19.45 149.09-20.15 147.14-20.15L147.14-20.15Q145.24-20.15 144.16-19.45 143.09-18.75 142.64-17.13 142.19-15.5 142.19-12.75L142.19-12.75Q142.19-9.95 142.56-8.22 142.94-6.5 143.99-5.73 145.04-4.95 147.14-4.95ZM172.24 0.6L172.24 0.6Q169.49 0.6 167.79-0.2 166.09-1 165.36-2.98 164.64-4.95 164.64-8.5L164.64-8.5 164.64-19.55 161.69-19.55 161.69-25.1 164.64-25.1 164.64-31.75 171.29-31.75 171.29-25.1 177.69-25.1 177.69-19.55 171.29-19.55 171.29-10.25Q171.29-8.3 171.46-7.2 171.64-6.1 172.24-5.65 172.84-5.2 174.09-5.2L174.09-5.2Q174.44-5.2 175.14-5.25 175.84-5.3 176.54-5.35 177.24-5.4 177.69-5.45L177.69-5.45 177.89-0.1Q177.14 0.05 176.06 0.2 174.99 0.35 173.96 0.48 172.94 0.6 172.24 0.6ZM188.03 0L181.38 0 181.38-25.1 188.03-25.1 188.03 0ZM188.08-29.1L181.38-29.1 181.38-34.8 188.08-34.8 188.08-29.1Z" opacity="1" transform="matrix(1,0,0,1,0,0)" fill="#ffffff" class="wordmark-text-0" data-fill-palette-color="primary" id="text-0"></path></svg></g></svg></g></svg></g></svg></g><g transform="matrix(1,0,0,1,418.4151368003893,0)"><svg viewBox="0 0 134.0292069424169 134.0292069424169" height="134.0292069424169" width="134.0292069424169"><g data-palette-color="#2ecc40"><rect width="36.63464989759395" height="134.0292069424169" fill="#ffffff" stroke="transparent" data-fill-palette-color="accent" x="0" fill-opacity="1"></rect><rect width="36.63464989759395" height="134.0292069424169" fill="#ffffff" stroke="transparent" data-fill-palette-color="accent" x="44.67640231413897" fill-opacity="0.75"></rect><rect width="36.63464989759395" height="134.0292069424169" fill="#ffffff" stroke="transparent" data-fill-palette-color="accent" x="89.35280462827794" fill-opacity="0.5"></rect></g></svg></g></svg></g><defs></defs></svg><rect width="395.52" height="95.95759741282541" fill="none" stroke="none" visibility="hidden"></rect></g></svg></g></svg>