<svg id="visual" viewBox="0 0 960 540" width="960" height="540" xmlns="http://www.w3.org/2000/svg" xmlns:xlink="http://www.w3.org/1999/xlink" version="1.1"><g stroke-width="1" stroke-linejoin="bevel"><path d="M489 302L472 221L384 234Z" fill="#373c3f" stroke="#373c3f"></path><path d="M384 234L381 351L489 302Z" fill="#4e5356" stroke="#4e5356"></path><path d="M257 313L377 409L381 351Z" fill="#222629" stroke="#222629"></path><path d="M381 351L503 411L489 302Z" fill="#000000" stroke="#000000"></path><path d="M377 409L503 411L381 351Z" fill="#2c3134" stroke="#2c3134"></path><path d="M472 221L443 102L384 234Z" fill="#0c1215" stroke="#0c1215"></path><path d="M247 187L257 313L384 234Z" fill="#222629" stroke="#222629"></path><path d="M384 234L257 313L381 351Z" fill="#5a5f62" stroke="#5a5f62"></path><path d="M635 358L622 226L489 302Z" fill="#42474a" stroke="#42474a"></path><path d="M489 302L622 226L472 221Z" fill="#666b6e" stroke="#666b6e"></path><path d="M472 221L610 91L443 102Z" fill="#42474a" stroke="#42474a"></path><path d="M496 540L565 417L503 411Z" fill="#2c3134" stroke="#2c3134"></path><path d="M503 411L565 417L489 302Z" fill="#5a5f62" stroke="#5a5f62"></path><path d="M443 102L331 98L384 234Z" fill="#666b6e" stroke="#666b6e"></path><path d="M331 98L247 187L384 234Z" fill="#373c3f" stroke="#373c3f"></path><path d="M565 417L635 358L489 302Z" fill="#42474a" stroke="#42474a"></path><path d="M130 297L228 414L257 313Z" fill="#222629" stroke="#222629"></path><path d="M257 313L228 414L377 409Z" fill="#4e5356" stroke="#4e5356"></path><path d="M377 409L496 540L503 411Z" fill="#4e5356" stroke="#4e5356"></path><path d="M622 226L610 91L472 221Z" fill="#222629" stroke="#222629"></path><path d="M443 102L374 0L331 98Z" fill="#222629" stroke="#222629"></path><path d="M687 188L610 91L622 226Z" fill="#72787b" stroke="#72787b"></path><path d="M699 324L687 188L622 226Z" fill="#181c1f" stroke="#181c1f"></path><path d="M749 452L699 324L635 358Z" fill="#181c1f" stroke="#181c1f"></path><path d="M635 358L699 324L622 226Z" fill="#4e5356" stroke="#4e5356"></path><path d="M610 91L451 0L443 102Z" fill="#666b6e" stroke="#666b6e"></path><path d="M331 98L211 110L247 187Z" fill="#373c3f" stroke="#373c3f"></path><path d="M247 187L130 297L257 313Z" fill="#2c3134" stroke="#2c3134"></path><path d="M219 0L211 110L331 98Z" fill="#373c3f" stroke="#373c3f"></path><path d="M339 540L496 540L377 409Z" fill="#666b6e" stroke="#666b6e"></path><path d="M565 417L749 452L635 358Z" fill="#72787b" stroke="#72787b"></path><path d="M451 0L374 0L443 102Z" fill="#000000" stroke="#000000"></path><path d="M228 414L339 540L377 409Z" fill="#72787b" stroke="#72787b"></path><path d="M92 241L130 297L247 187Z" fill="#181c1f" stroke="#181c1f"></path><path d="M496 540L594 540L565 417Z" fill="#222629" stroke="#222629"></path><path d="M610 91L598 0L451 0Z" fill="#72787b" stroke="#72787b"></path><path d="M711 0L598 0L610 91Z" fill="#42474a" stroke="#42474a"></path><path d="M228 414L247 540L339 540Z" fill="#72787b" stroke="#72787b"></path><path d="M156 540L247 540L228 414Z" fill="#666b6e" stroke="#666b6e"></path><path d="M810 221L734 130L687 188Z" fill="#2c3134" stroke="#2c3134"></path><path d="M687 188L734 130L610 91Z" fill="#222629" stroke="#222629"></path><path d="M219 0L152 76L211 110Z" fill="#373c3f" stroke="#373c3f"></path><path d="M211 110L92 241L247 187Z" fill="#181c1f" stroke="#181c1f"></path><path d="M152 76L92 241L211 110Z" fill="#000000" stroke="#000000"></path><path d="M130 297L104 396L228 414Z" fill="#181c1f" stroke="#181c1f"></path><path d="M374 0L219 0L331 98Z" fill="#0c1215" stroke="#0c1215"></path><path d="M0 319L104 396L130 297Z" fill="#222629" stroke="#222629"></path><path d="M594 540L749 452L565 417Z" fill="#000000" stroke="#000000"></path><path d="M699 324L810 221L687 188Z" fill="#000000" stroke="#000000"></path><path d="M833 346L810 221L699 324Z" fill="#222629" stroke="#222629"></path><path d="M104 396L156 540L228 414Z" fill="#666b6e" stroke="#666b6e"></path><path d="M813 0L711 0L734 130Z" fill="#000000" stroke="#000000"></path><path d="M734 130L711 0L610 91Z" fill="#0c1215" stroke="#0c1215"></path><path d="M594 540L729 540L749 452Z" fill="#72787b" stroke="#72787b"></path><path d="M749 452L833 346L699 324Z" fill="#5a5f62" stroke="#5a5f62"></path><path d="M817 462L833 346L749 452Z" fill="#0c1215" stroke="#0c1215"></path><path d="M729 540L817 462L749 452Z" fill="#000000" stroke="#000000"></path><path d="M960 207L839 109L810 221Z" fill="#72787b" stroke="#72787b"></path><path d="M810 221L839 109L734 130Z" fill="#5a5f62" stroke="#5a5f62"></path><path d="M92 241L0 319L130 297Z" fill="#181c1f" stroke="#181c1f"></path><path d="M104 396L0 540L156 540Z" fill="#42474a" stroke="#42474a"></path><path d="M0 210L0 319L92 241Z" fill="#222629" stroke="#222629"></path><path d="M0 99L92 241L152 76Z" fill="#2c3134" stroke="#2c3134"></path><path d="M0 99L0 210L92 241Z" fill="#0c1215" stroke="#0c1215"></path><path d="M219 0L89 0L152 76Z" fill="#000000" stroke="#000000"></path><path d="M0 319L0 420L104 396Z" fill="#4e5356" stroke="#4e5356"></path><path d="M839 109L813 0L734 130Z" fill="#5a5f62" stroke="#5a5f62"></path><path d="M89 0L0 99L152 76Z" fill="#181c1f" stroke="#181c1f"></path><path d="M960 462L960 293L833 346Z" fill="#000000" stroke="#000000"></path><path d="M833 346L960 293L810 221Z" fill="#42474a" stroke="#42474a"></path><path d="M729 540L854 540L817 462Z" fill="#5a5f62" stroke="#5a5f62"></path><path d="M0 420L0 540L104 396Z" fill="#666b6e" stroke="#666b6e"></path><path d="M89 0L0 0L0 99Z" fill="#4e5356" stroke="#4e5356"></path><path d="M960 462L833 346L817 462Z" fill="#42474a" stroke="#42474a"></path><path d="M839 109L960 0L813 0Z" fill="#0c1215" stroke="#0c1215"></path><path d="M960 293L960 207L810 221Z" fill="#72787b" stroke="#72787b"></path><path d="M960 207L960 134L839 109Z" fill="#222629" stroke="#222629"></path><path d="M854 540L960 462L817 462Z" fill="#181c1f" stroke="#181c1f"></path><path d="M854 540L960 540L960 462Z" fill="#373c3f" stroke="#373c3f"></path><path d="M960 134L960 0L839 109Z" fill="#666b6e" stroke="#666b6e"></path></g></svg>